<svg xmlns="http://www.w3.org/2000/svg" version="1.1" xmlns:xlink="http://www.w3.org/1999/xlink" xmlns:svgjs="http://svgjs.dev/svgjs" width="1000" height="1000" viewBox="0 0 1000 1000"><rect width="1000" height="1000" fill="#ffffff"></rect><g transform="matrix(0.7,0,0,0.7,149.57575757575756,282.1265587044535)"><svg viewBox="0 0 396 247" data-background-color="#ffffff" preserveAspectRatio="xMidYMid meet" height="623" width="1000" xmlns="http://www.w3.org/2000/svg" xmlns:xlink="http://www.w3.org/1999/xlink"><g id="tight-bounds" transform="matrix(1,0,0,1,0.2400000000000091,-0.09999999999999432)"><svg viewBox="0 0 395.52 247.2" height="247.2" width="395.52"><g><svg viewBox="0 0 395.52 247.2" height="247.2" width="395.52"><g transform="matrix(1,0,0,1,25.05107142857142,0)"><svg viewBox="0 0 345.41785714285714 247.2" height="247.2" width="345.41785714285714"><g><svg viewBox="0 0 345.41785714285714 247.2" height="247.2" width="345.41785714285714"><g><svg viewBox="0 0 345.41785714285714 247.2" height="247.2" width="345.41785714285714"><g><svg viewBox="0 0 345.41785714285714 247.2" height="247.2" width="345.41785714285714"><g id="textblocktransform"><svg viewBox="0 0 345.41785714285714 247.2" height="247.2" width="345.41785714285714" id="textblock"><g><svg viewBox="0 0 345.41785714285714 247.2" height="247.2" width="345.41785714285714"><g transform="matrix(1,0,0,1,0,0)"><svg width="345.41785714285714" viewBox="-1.8499999046325684 -41.45000076293945 63.599998474121094 45.79999923706055" height="247.2" data-palette-color="#000000"><path d="M16.7 0.05Q15.05 0.05 13.68-0.7 12.3-1.45 11.65-2.75L11.65-2.75Q10.95-4.05 9.47-8.35 8-12.65 6.3-18.35L6.3-18.35Q6.15-19 4.8-23.55L4.8-23.55Q3.55-28.15 2.3-32.15L2.3-32.15Q2.15-32.6 2.15-32.9L2.15-32.9Q2.15-34.05 3.13-34.75 4.1-35.45 5.4-35.45L5.4-35.45Q7.55-35.45 8.05-33.95L8.05-33.95Q9.35-29.75 10.85-24.4L10.85-24.4 12.2-19.55Q14.2-12.5 15.08-10.1 15.95-7.7 16.6-7.7L16.6-7.7Q17.3-7.75 18.15-10.23 19-12.7 20.75-19.55L20.75-19.55Q22.8-27.7 24.55-33.9L24.55-33.9Q25.05-35.4 27.15-35.4L27.15-35.4Q28.7-35.4 29.65-34.77 30.6-34.15 30.6-32.9L30.6-32.9Q30.6-32.25 30.5-31.9L30.5-31.9Q29.95-29.75 27.55-21.25L27.55-21.25Q26.95-19.05 26.75-18.45L26.75-18.45Q25.2-12.95 23.78-8.5 22.35-4.05 21.8-2.85L21.8-2.85Q21.15-1.5 19.75-0.73 18.35 0.05 16.7 0.05L16.7 0.05ZM39.4 0.35Q38.1 0.35 37.22-0.28 36.35-0.9 36.35-1.85L36.35-1.85 36.35-34.9Q36.35-36.1 37.17-36.77 38-37.45 39.35-37.45L39.35-37.45Q40.7-37.45 41.57-36.75 42.45-36.05 42.45-34.9L42.45-34.9 42.35-19.65Q48.8-23.6 53.65-26.5L53.65-26.5Q54.45-27 55.3-27L55.3-27Q56.25-27 57-26.08 57.75-25.15 57.75-24L57.75-24Q57.75-23.35 57.4-22.95 57.05-22.55 56.25-22.05L56.25-22.05 43.35-14.25 56.6-4.4Q57.35-3.85 57.35-2.75L57.35-2.75Q57.35-1.6 56.5-0.83 55.65-0.05 54.55-0.05L54.55-0.05Q53.5-0.05 52.35-0.85L52.35-0.85Q51-1.85 47.3-4.85L47.3-4.85Q46.35-5.6 45.12-6.58 43.9-7.55 42.35-8.75L42.35-8.75 42.35-1.9Q42.35-0.9 41.52-0.28 40.7 0.35 39.4 0.35L39.4 0.35Z" opacity="1" transform="matrix(1,0,0,1,0,0)" fill="#000000" class="wordmark-text-0" data-fill-palette-color="primary" id="text-0"></path></svg></g></svg></g></svg></g></svg></g></svg></g></svg></g></svg></g></svg></g><defs></defs></svg><rect width="395.52" height="247.2" fill="none" stroke="none" visibility="hidden"></rect></g></svg></g></svg>